<?xml version="1.0" encoding="UTF-8"?>
<svg id="Layer_1" xmlns="http://www.w3.org/2000/svg" version="1.1" viewBox="0 0 1024 371">
  <!-- Generator: Adobe Illustrator 29.2.1, SVG Export Plug-In . SVG Version: 2.1.0 Build 116)  -->
  <defs>
    <style>
      .st0 {
        fill: #26a87a;
      }

      .st1 {
        fill: #e57200;
      }

      .st2 {
        fill: #005a91;
      }
    </style>
  </defs>
  <g id="_x3C_defs">
    <inkscape:perspective id="perspective9"/>
  </g>
  <sodipodi:namedview id="base" bordercolor="#666666" borderopacity="1.0" gridtolerance="10.0" guidetolerance="10.0" objecttolerance="10.0" pagecolor="#ffffff" showgrid="false"/>
  <g>
    <g>
      <path class="st2" d="M65.7,179.8l19.6-21.3c13.6,11.9,31.8,20,49.4,20s33.1-8.9,33.1-22.6-12.2-19-29.5-25.7l-25.9-10.4c-18.7-7.2-38.3-20.8-38.3-46.4s26.7-49.3,63.7-49.3,43.6,8.5,58.5,22.3l-17.3,19.7c-12.1-9.5-24.9-15-41.2-15s-29.7,7.8-29.7,20.5,14.4,18.8,30.2,24.8l25.6,9.9c22.6,8.7,38.3,21.8,38.3,47.2s-25.5,52-68.1,52-50.3-9.3-68.3-25.6Z"/>
      <path class="st2" d="M269.4,136l-58-111.7h36.6l21,45.5c5.7,13.2,11.1,25.6,17.2,39.1h1.2c6.1-13.5,12.2-25.9,17.8-39.1l21-45.5h35.6l-58,111.7v66.1h-34.2v-66.1Z"/>
      <path class="st2" d="M384.9,24.3h65c40.1,0,71,13.1,71,52.8s-30.9,55.6-71,55.6h-30.8v69.5h-34.2V24.3ZM446.4,107.4c26.4,0,40.8-10.1,40.8-30.4s-14.4-27.5-40.8-27.5h-27.2v57.9h27.2ZM443.5,124.2l24.8-18.8,60.2,96.8h-38.5l-46.5-77.9Z"/>
      <path class="st2" d="M554.8,24.3h34.2v177.9h-34.2V24.3Z"/>
      <path class="st2" d="M671,24.3h40.1l62.9,177.9h-36.2l-29.4-94.6c-6.1-18.8-11.8-39.1-17.5-58.6h-1.2c-5.3,19.7-11,39.8-17.1,58.6l-29.6,94.6h-34.9l62.9-177.9ZM645.3,129.3h90.8v24.7h-90.8v-24.7Z"/>
      <path class="st2" d="M797.8,24.3h35.2l59.9,100,19.9,38h1.2c-1.7-18.4-4.4-40.9-4.4-60.7V24.3h32.6v177.9h-35.2l-59.9-100.1-19.9-37.8h-1.2c1.7,18.8,4.4,40.3,4.4,60.1v77.9h-32.6V24.3Z"/>
      <path class="st0" d="M67.6,243.5h25v39.2h38.1v-39.2h25v101.8h-25v-42.5h-38.1v42.5h-25v-101.8Z"/>
      <path class="st0" d="M174.7,298.1v-54.6h25v57c0,19.9,6.8,26.8,19.2,26.8s19.6-6.9,19.6-26.8v-57h24.1v54.6c0,34.2-15.1,49-43.6,49s-44.1-14.9-44.1-49Z"/>
      <path class="st0" d="M281.5,243.5h27.2l17.9,45.2c2.2,6,4.1,12.5,6.4,18.8h.7c2.2-6.3,4.1-12.8,6.3-18.8l17.4-45.2h27.2v101.8h-22.7v-37.4c0-9.9,2-24.7,3.2-34.6h-.7l-9.1,24.1-15.6,39h-13.9l-15.6-39-8.8-24.1h-.7c1.2,9.9,3.2,24.7,3.2,34.6v37.4h-22.4v-101.8Z"/>
      <path class="st0" d="M424.7,243.5h29.9l34.7,101.8h-26.4l-14.4-51.6c-3.1-10.2-6-22.2-9-32.8h-.7c-2.7,10.7-5.6,22.7-8.7,32.8l-14.5,51.6h-25.5l34.7-101.8ZM412.9,303.1h53.1v17.9h-53.1v-17.9Z"/>
      <path class="st0" d="M494.8,243.5h25.6l28.8,50.6,10.9,22.4h.7c-1.2-10.8-3.2-25-3.2-37v-36h23.8v101.8h-25.6l-28.8-50.8-10.9-22.2h-.7c1.2,11.2,3.2,24.9,3.2,36.9v36.1h-23.8v-101.8Z"/>
      <path class="st0" d="M601,243.5h25v101.8h-25v-101.8Z"/>
      <path class="st0" d="M638.4,332.4l14.3-15.8c7.8,6.3,18,10.6,27.1,10.6s15.5-3.8,15.5-9.8-6.3-8.5-15.9-12.1l-14.3-5.6c-11.4-4.3-22.3-13-22.3-27.7s16.3-30.3,39.3-30.3,26,4.6,35.5,13.3l-12.6,14.5c-7.3-5.1-14.2-8-22.9-8s-14.1,3.3-14.1,9.1,7.2,8.5,16.9,12l14.1,5.3c13.5,5,21.9,13.3,21.9,27.7s-15.3,31.6-41.6,31.6-29.6-5-40.9-14.7Z"/>
      <path class="st0" d="M751.4,262.8h-30.4v-19.3h85.7v19.3h-30.4v82.5h-25v-82.5Z"/>
      <path class="st0" d="M806.2,332.4l14.3-15.8c7.8,6.3,18,10.6,27.1,10.6s15.5-3.8,15.5-9.8-6.3-8.5-15.9-12.1l-14.3-5.6c-11.4-4.3-22.3-13-22.3-27.7s16.3-30.3,39.3-30.3,26,4.6,35.5,13.3l-12.6,14.5c-7.3-5.1-14.2-8-22.9-8s-14.1,3.3-14.1,9.1,7.2,8.5,16.9,12l14.1,5.3c13.5,5,21.9,13.3,21.9,27.7s-15.3,31.6-41.6,31.6-29.6-5-40.9-14.7Z"/>
    </g>
    <g>
      <path class="st1" d="M917.5,240.2c3.1,0,5.3,2.4,5.3,5.5s-2.3,5.5-5.3,5.5-5.3-2.4-5.3-5.5,2.3-5.5,5.3-5.5Z"/>
      <path class="st1" d="M927.5,256.3c9.6,0,15.2,7.1,15.2,14.9s-5.5,14.9-15.2,14.9-15.1-7.1-15.1-14.9,5.5-14.9,15.1-14.9ZM927.5,278.5c5.8,0,9.6-2.8,9.6-7.3s-3.9-7.3-9.6-7.3-9.6,2.8-9.6,7.3,3.8,7.3,9.6,7.3Z"/>
      <path class="st1" d="M942,293.3v6l-5.2.6v.2c3.8,2.2,5.9,5.5,5.9,8.9s-.2,2.6-.6,3.5l-5.9-1.3c.3-1.1.5-1.9.5-3.2,0-2.5-1.6-5.5-6-7.4h-17.6v-7.3h28.9Z"/>
      <path class="st1" d="M907.9,314.3c2.4,0,4.6,1.6,6.2,4.5h.2c1-1.6,2.5-2.8,4.8-2.8s4.2,1.7,5.4,3.5h.2c1.5-2.1,4.2-4.1,7.6-4.1,6.6,0,10.4,5.8,10.4,12.4s-.3,3.4-.7,4.6v11.2h-5v-5.7c-1.1,1-2.9,1.8-4.8,1.8-6.4,0-9.9-5.3-9.9-11.9s.3-2.8.8-4.2c-.7-.9-1.5-1.5-2.8-1.5s-2.6,1.3-2.6,5.1v5.6c0,7.5-2.1,11.5-7.1,11.5s-10.2-6.5-10.2-16.7,2.5-13,7.5-13ZM909.4,337c2.2,0,2.9-1.9,2.9-5.5v-4.3c0-1.7.1-3,.4-4.2-1.2-1.7-2.5-2.4-3.8-2.4-2.6,0-4.2,3.1-4.2,8s2.2,8.5,4.7,8.5ZM932.3,333.1c3.6,0,5.7-2.4,5.7-5.4s-2-5.4-5.7-5.4-5.8,2.4-5.8,5.4,2.1,5.4,5.8,5.4Z"/>
    </g>
  </g>
</svg>